<svg xmlns="http://www.w3.org/2000/svg" viewBox="0 0 512 512" role="img" aria-labelledby="title desc">
  <title id="title">Hambaft App Icon</title>
  <desc id="desc">Rounded square app icon for Hambaft.</desc>
  <defs>
    <linearGradient id="bg" x1="0" x2="1" y1="0" y2="1">
      <stop offset="0%" stop-color="#2d3025" />
      <stop offset="100%" stop-color="#4f533f" />
    </linearGradient>
    <linearGradient id="accent" x1="0" x2="1" y1="0" y2="1">
      <stop offset="0%" stop-color="#f29d52" />
      <stop offset="100%" stop-color="#e26645" />
    </linearGradient>
  </defs>
  <rect width="512" height="512" rx="132" fill="url(#bg)" />
  <rect x="88" y="88" width="336" height="336" rx="96" fill="#f7f1e7" opacity="0.12" />
  <path d="M168 128h56v112h64V128h56v256h-56V288h-64v96h-56V128z" fill="#f7f1e7" />
  <circle cx="360" cy="160" r="44" fill="url(#accent)" />
  <path d="M332 334c18-24 44-38 74-38 10 0 20 2 30 5-10 49-53 83-104 83-28 0-53-10-73-28 14-29 41-48 73-48z" fill="url(#accent)" />
</svg>
